<?xml version="1.0" encoding="UTF-8"?>
<!DOCTYPE svg PUBLIC "-//W3C//DTD SVG 1.1//EN" "http://www.w3.org/Graphics/SVG/1.1/DTD/svg11.dtd">
<!-- Creator: CorelDRAW -->
<svg xmlns="http://www.w3.org/2000/svg" xml:space="preserve" width="1.23873in" height="0.969524in" version="1.1" style="shape-rendering:geometricPrecision; text-rendering:geometricPrecision; image-rendering:optimizeQuality; fill-rule:evenodd; clip-rule:evenodd"
viewBox="0 0 69.57 54.45"
 xmlns:xlink="http://www.w3.org/1999/xlink"
 xmlns:xodm="http://www.corel.com/coreldraw/odm/2003">
 <defs>
  <style type="text/css">
   <![CDATA[
    .fil2 {fill:#FEFEFE}
    .fil3 {fill:#57BB6E;fill-rule:nonzero}
    .fil1 {fill:#FEFEFE;fill-rule:nonzero}
    .fil0 {fill:url(#id0)}
   ]]>
  </style>
  <linearGradient id="id0" gradientUnits="userSpaceOnUse" x1="34.12" y1="-0.26" x2="34.12" y2="34.97">
   <stop offset="0" style="stop-opacity:1; stop-color:#6CC06D"/>
   <stop offset="1" style="stop-opacity:1; stop-color:#37B670"/>
  </linearGradient>
 </defs>
 <g id="Layer_x0020_1">
  <metadata id="CorelCorpID_0Corel-Layer"/>
  <g id="_2955892629872">
   <path class="fil0" d="M34.79 35.38c-2.65,0 -5.3,-1.01 -7.31,-3.06l-6.73 -6.79 -0.44 -0.45c-4.05,-4.08 -4.05,-10.7 0,-14.78l7.17 -7.24c1.28,-1.29 2.81,-2.18 4.44,-2.66 2.69,-1.02 7.24,-0.05 9.18,1.74 0.36,0.28 0.7,0.58 1.02,0.92l4.22 4.26 2.94 2.97c4.05,4.08 4.05,10.7 0,14.78l-7.17 7.24c-2.02,2.04 -4.68,3.06 -7.31,3.06l0.01 0.01 -0.02 0z"/>
   <path class="fil1" d="M30.96 23.64l0.32 0.19c1.17,0.71 2.51,1.08 3.86,1.08 4.18,0 7.58,-3.43 7.58,-7.65 0,-4.22 -3.4,-7.65 -7.58,-7.65 -4.18,0 -7.58,3.43 -7.58,7.65 0,1.39 0.38,2.76 1.11,3.96l0.2 0.32 -0.75 2.85 2.84 -0.77 0 0.01 -0.01 0zm-5.33 3.29l1.35 -5.1c-0.76,-1.4 -1.17,-2.96 -1.17,-4.55 0,-5.2 4.19,-9.43 9.34,-9.43 5.16,0 9.34,4.23 9.34,9.43 0,5.2 -4.19,9.43 -9.34,9.43 -1.54,0 -3.08,-0.39 -4.44,-1.14l-5.09 1.37 -0 -0z"/>
   <path class="fil2" d="M38.63 18.57c-0.38,-0.23 -0.88,-0.49 -1.34,-0.31 -0.35,0.14 -0.57,0.69 -0.8,0.98 -0.12,0.14 -0.25,0.17 -0.44,0.1 -1.3,-0.52 -2.31,-1.41 -3.02,-2.61 -0.12,-0.19 -0.1,-0.33 0.04,-0.51 0.22,-0.25 0.49,-0.55 0.55,-0.9 0.06,-0.35 -0.1,-0.75 -0.24,-1.07 -0.18,-0.39 -0.38,-0.96 -0.78,-1.18 -0.36,-0.21 -0.83,-0.09 -1.15,0.17 -0.56,0.46 -0.83,1.18 -0.82,1.88 0,0.2 0.03,0.4 0.07,0.59 0.11,0.47 0.32,0.91 0.57,1.32 0.18,0.31 0.38,0.62 0.59,0.92 0.7,0.95 1.56,1.79 2.57,2.4 0.51,0.31 1.05,0.58 1.61,0.77 0.63,0.21 1.19,0.43 1.86,0.3 0.71,-0.13 1.41,-0.58 1.7,-1.27 0.09,-0.21 0.12,-0.43 0.08,-0.66 -0.1,-0.45 -0.69,-0.72 -1.06,-0.93l0 -0.01 0.01 -0z"/>
   <polygon class="fil3" points="12.05,40.07 10.23,47.19 8.28,40.07 7.98,40.07 6.13,40.07 4.19,47.22 2.36,40.07 -0,40.07 2.78,50.33 5.36,50.33 7.2,43.12 9.04,50.33 11.63,50.33 14.41,40.07 "/>
   <path class="fil3" d="M19.23 43.35c-0.75,0 -1.42,0.34 -1.9,0.91l0 -5.64 -2.18 0 0 11.72 2.18 0 0 -3.87c0,-0.6 0.49,-1.18 1.14,-1.18 0.61,0 1.03,0.48 1.03,1.08l0 3.97 2.18 0 0 -4.33c0,-1.5 -1.08,-2.65 -2.46,-2.65l0 -0.01 0 -0.01z"/>
   <path class="fil3" d="M31.09 48.56c-0.28,0 -0.59,-0.1 -0.59,-0.66l0 -4.4 -2.15 0 0 0.59c-0.51,-0.46 -1.14,-0.73 -1.93,-0.73 -1.88,0 -3.36,1.57 -3.36,3.56 0,1.98 1.47,3.56 3.36,3.56 0.99,0 1.77,-0.45 2.32,-1.16 0.43,0.7 1.16,1.16 2.08,1.16 0.22,0 0.43,-0.07 0.58,-0.13l0 -1.77 -0.31 0 0 -0.01 0 0.01zm-4.25 -0.02c-0.9,0 -1.61,-0.72 -1.61,-1.63 0,-0.92 0.71,-1.63 1.61,-1.63 0.88,0 1.61,0.72 1.61,1.63 0,0.92 -0.73,1.63 -1.61,1.63z"/>
   <path class="fil3" d="M36.74 45.19l0 -1.7 -1.62 0 0 -2.64 -2.15 0 0 2.64 -1.14 0 0 1.7 1.14 0 0 2.7c0,1.45 1.22,2.58 2.66,2.58 0.45,0 0.91,-0.1 1.08,-0.22l0 -1.7 -0.81 0c-0.45,0 -0.78,-0.36 -0.78,-0.92l0 -2.45 1.62 0 -0.01 0 0.01 0z"/>
   <path class="fil3" d="M40.28 50.47c1.53,0 2.46,-0.94 2.46,-2.22 0,-1.37 -1.12,-1.92 -2.09,-2.3 -0.5,-0.21 -0.73,-0.31 -0.73,-0.57 0,-0.22 0.17,-0.39 0.54,-0.39 0.44,0 0.85,0.24 1.06,0.49l1.08 -1.23c-0.52,-0.51 -1.34,-0.91 -2.29,-0.91 -1.55,0 -2.53,1.02 -2.53,2.19 0,1.37 1.36,1.84 2.14,2.12 0.61,0.24 0.82,0.41 0.82,0.66 0,0.27 -0.24,0.43 -0.59,0.43 -0.36,0 -0.83,-0.13 -1.14,-0.72l-1.6 0.8c0.41,1.06 1.66,1.63 2.87,1.63l-0.01 -0.01 0 0.02z"/>
   <path class="fil3" d="M51.59 48.56c-0.28,0 -0.59,-0.1 -0.59,-0.66l0 -4.4 -2.15 0 0 0.59c-0.51,-0.46 -1.14,-0.73 -1.93,-0.73 -1.88,0 -3.36,1.57 -3.36,3.56 0,1.98 1.47,3.56 3.36,3.56 0.99,0 1.77,-0.45 2.32,-1.16 0.43,0.7 1.16,1.16 2.08,1.16 0.22,0 0.43,-0.07 0.58,-0.13l0 -1.77 -0.31 0 0 -0.01 0 0zm-4.25 -0.02c-0.9,0 -1.61,-0.72 -1.61,-1.63 0,-0.92 0.71,-1.63 1.61,-1.63 0.88,0 1.61,0.72 1.61,1.63 0,0.92 -0.73,1.63 -1.61,1.63z"/>
   <path class="fil3" d="M57.27 43.35c-0.78,0 -1.42,0.27 -1.94,0.73l0 -0.58 -2.18 -0.02 0 10.94 2.18 0.02 0 -4.72c0.52,0.46 1.14,0.73 1.94,0.73 1.86,0 3.34,-1.57 3.34,-3.56 0,-1.98 -1.47,-3.56 -3.34,-3.56l0 0.01 0 -0.01zm-0.43 5.18c-0.9,0 -1.62,-0.72 -1.62,-1.63 0,-0.92 0.71,-1.63 1.62,-1.63 0.9,0 1.62,0.72 1.62,1.63 0,0.92 -0.71,1.63 -1.62,1.63z"/>
   <path class="fil3" d="M66.23 43.35c-0.78,0 -1.42,0.27 -1.94,0.73l0 -0.58 -2.17 -0.02 0 10.94 2.17 0.02 0 -4.72c0.52,0.46 1.14,0.73 1.94,0.73 1.86,0 3.34,-1.57 3.34,-3.56 0,-1.98 -1.47,-3.56 -3.34,-3.56l0 0.01 0 -0.01zm-0.43 5.18c-0.9,0 -1.62,-0.72 -1.62,-1.63 0,-0.92 0.71,-1.63 1.62,-1.63 0.9,0 1.62,0.72 1.62,1.63 0,0.92 -0.71,1.63 -1.62,1.63z"/>
  </g>
 </g>
</svg>
